<svg viewBox="0 0 2084 2084" xmlns="http://www.w3.org/2000/svg" fill-rule="evenodd" clip-rule="evenodd" stroke-linejoin="round" stroke-miterlimit="2">
  <path fill="none" d="M0 0h2083.33v2083.33H0z"/>
  <clipPath id="a">
    <path d="M0 0h2083.33v2083.33H0z"/>
  </clipPath>
  <g clip-path="url(#a)">
    <path d="M2083.33 520.833C2083.33 233.378 1849.953 0 1562.497 0H520.827C233.372 0-.006 233.378-.006 520.833v1041.67c0 287.456 233.378 520.833 520.833 520.833h1041.67c287.456 0 520.833-233.377 520.833-520.833V520.833z" fill="#3d3d3d"/>
    <clipPath id="b">
      <path d="M2083.33 520.833C2083.33 233.378 1849.953 0 1562.497 0H520.827C233.372 0-.006 233.378-.006 520.833v1041.67c0 287.456 233.378 520.833 520.833 520.833h1041.67c287.456 0 520.833-233.377 520.833-520.833V520.833z"/>
    </clipPath>
    <g clip-path="url(#b)">
      <path d="M-219.864 1139.58V2212.5h-171.803V-250h586.149c305.427 0 531.128 56.425 677.104 169.276 145.976 112.85 218.963 282.688 218.963 509.512 0 165.065-43.512 304.303-130.536 417.715-87.024 113.412-219.244 194.822-396.661 244.229l668.682 1121.77h-205.489L391.55 1139.582h-611.414zm0-148.222h469.93c207.734 0 368.869-46.319 483.404-138.958 114.535-92.638 171.802-229.35 171.802-410.136 0-187.523-56.144-323.954-168.433-409.293-112.289-85.34-295.321-128.01-549.094-128.01h-407.609v1086.4z" fill="#8ae8ba" fill-rule="nonzero"/>
    </g>
  </g>
</svg>
